HIERARCHY
ROOT joint_0
{
	OFFSET 0.000000 0.000000 0.000000
	CHANNELS 6 Xposition Yposition Zposition Zrotation Yrotation Xrotation 
	JOINT joint_1
	{
		OFFSET 11.612000 -0.419000 106.198000
		CHANNELS 3 Zrotation Yrotation Xrotation
		JOINT joint_2
		{
			OFFSET -1.708000 -1.022000 97.564090
			CHANNELS 3 Zrotation Yrotation Xrotation
			JOINT joint_3
			{
				OFFSET -4.121000 -1.538000 97.375000
				CHANNELS 3 Zrotation Yrotation Xrotation
				JOINT joint_4
				{
					OFFSET 5.442000 -2.123000 132.795900
					CHANNELS 3 Zrotation Yrotation Xrotation
					JOINT joint_5
					{
						OFFSET 21.935000 0.195000 82.975100
						CHANNELS 3 Zrotation Yrotation Xrotation
						End Site
						{
							OFFSET 0.000000 0.000000 0.000000
						}
					}
				}
				JOINT joint_6
				{
					OFFSET 4.262000 -30.048000 73.899900
					CHANNELS 3 Zrotation Yrotation Xrotation
					JOINT joint_7
					{
						OFFSET 9.731000 -136.810010 -21.963010
						CHANNELS 3 Zrotation Yrotation Xrotation
						JOINT joint_8
						{
							OFFSET 33.360000 -35.709000 -267.597900
							CHANNELS 3 Zrotation Yrotation Xrotation
							JOINT joint_9
							{
								OFFSET 36.156000 -29.759000 -240.558040
								CHANNELS 3 Zrotation Yrotation Xrotation
								End Site
								{
									OFFSET 0.000000 0.000000 0.000000
								}
							}
						}
					}
				}
				JOINT joint_10
				{
					OFFSET 2.027000 27.734000 74.914920
					CHANNELS 3 Zrotation Yrotation Xrotation
					JOINT joint_11
					{
						OFFSET -5.183000 136.784000 -23.604980
						CHANNELS 3 Zrotation Yrotation Xrotation
						JOINT joint_12
						{
							OFFSET 29.806000 37.229000 -267.809940
							CHANNELS 3 Zrotation Yrotation Xrotation
							JOINT joint_13
							{
								OFFSET 36.890000 46.524990 -237.772030
								CHANNELS 3 Zrotation Yrotation Xrotation
								End Site
								{
									OFFSET 0.000000 0.000000 0.000000
								}
							}
						}
					}
				}
			}
		}
	}
	JOINT joint_14
	{
		OFFSET -7.290000 -102.873990 -124.314940
		CHANNELS 3 Zrotation Yrotation Xrotation
		JOINT joint_15
		{
			OFFSET -15.466000 -19.909010 -438.533020
			CHANNELS 3 Zrotation Yrotation Xrotation
			JOINT joint_16
			{
				OFFSET -26.899000 -18.922000 -464.797000
				CHANNELS 3 Zrotation Yrotation Xrotation
				JOINT joint_17
				{
					OFFSET 179.329000 -12.011000 -84.174000
					CHANNELS 3 Zrotation Yrotation Xrotation
					End Site
					{
						OFFSET 0.000000 0.000000 0.000000
					}
				}
			}
		}
	}
	JOINT joint_18
	{
		OFFSET -6.225000 101.546000 -125.479980
		CHANNELS 3 Zrotation Yrotation Xrotation
		JOINT joint_19
		{
			OFFSET -13.973000 7.996000 -438.963010
			CHANNELS 3 Zrotation Yrotation Xrotation
			JOINT joint_20
			{
				OFFSET -44.294000 5.716000 -463.813970
				CHANNELS 3 Zrotation Yrotation Xrotation
				JOINT joint_21
				{
					OFFSET 178.505000 -4.689000 -85.139000
					CHANNELS 3 Zrotation Yrotation Xrotation
					End Site
					{
						OFFSET 0.000000 0.000000 0.000000
					}
				}
			}
		}
	}
}
MOTION
Frames: 5
Frame Time: 0.016667
-3114.138184 956.308899 1116.697998 -11.418581 -2.091882 -2.810362 -1.444097 11.834236 1.772177 -2.237222 -2.209173 -0.521752 -2.226619 2.009144 0.250568 -0.782141 -3.940954 3.511265 0.000000 0.000000 0.000000 -3.202903 -22.313923 3.374671 0.301115 -11.427241 2.532329 14.428087 -69.249575 23.388826 0.000000 0.000000 0.000000 -1.561153 -13.225394 3.586840 2.338164 -9.245172 1.637383 -10.552178 -73.832706 -7.026406 0.000000 0.000000 0.000000 0.212018 5.537637 -2.688035 -0.481125 16.709017 -1.004473 -0.627431 -4.859185 -0.584471 0.000000 0.000000 0.000000 5.890161 -15.009792 2.562066 6.013934 19.646386 3.184757 5.922587 -4.198243 2.570421 0.000000 0.000000 0.000000 
-3112.074219 960.842163 1118.680054 -11.488973 -1.861437 -2.925503 -1.358344 11.852558 1.606345 -2.270530 -2.190534 -0.490189 -2.279133 2.000580 0.236173 -0.762561 -4.040568 3.443880 0.000000 0.000000 0.000000 -3.142808 -22.445286 3.460649 0.407237 -11.603016 2.700415 14.412581 -68.752567 22.643875 0.000000 0.000000 0.000000 -1.583803 -13.606163 3.769218 2.720710 -9.510129 1.650889 -10.355190 -72.924496 -8.958635 0.000000 0.000000 0.000000 0.309428 4.303263 -3.050235 -0.524770 18.269561 -0.561488 -0.796611 -3.784023 -0.582621 0.000000 0.000000 0.000000 5.871013 -14.695505 2.431113 6.070476 18.739281 3.033554 5.980905 -3.847158 2.613108 0.000000 0.000000 0.000000 
-3110.272217 964.826965 1120.296021 -11.433443 -1.686707 -3.079269 -1.282957 11.957394 1.494695 -2.304990 -2.192235 -0.461546 -2.329163 2.008977 0.220204 -0.727792 -4.171575 3.319604 0.000000 0.000000 0.000000 -3.049511 -22.575920 3.484115 0.429044 -11.751854 2.779430 14.349744 -68.581658 21.917571 0.000000 0.000000 0.000000 -1.652775 -13.927320 3.874852 2.880318 -9.733613 1.670361 -10.324591 -72.438359 -9.950508 0.000000 0.000000 0.000000 0.183294 3.233960 -3.294666 -0.767492 19.626681 -0.159690 -1.202968 -2.723362 -0.680802 0.000000 0.000000 0.000000 5.820137 -14.440105 2.382354 6.089690 18.006488 2.868612 6.006365 -3.554617 2.637713 0.000000 0.000000 0.000000 
-3108.771729 968.340210 1121.659058 -11.269537 -1.530452 -3.259604 -1.211580 12.118319 1.423441 -2.337262 -2.202928 -0.435723 -2.374569 2.026406 0.200917 -0.678403 -4.336538 3.142183 0.000000 0.000000 0.000000 -2.934826 -22.743574 3.459440 0.333707 -11.899834 2.761559 14.222382 -68.636887 21.340898 0.000000 0.000000 0.000000 -1.756258 -14.209984 3.934262 2.909023 -9.923976 1.719728 -10.406587 -72.340629 -10.394096 0.000000 0.000000 0.000000 -0.136533 2.236629 -3.447912 -1.187728 20.867330 0.204740 -1.836642 -1.670740 -0.873096 0.000000 0.000000 0.000000 5.739116 -14.256591 2.402382 6.076037 17.397296 2.677977 6.000308 -3.294822 2.645946 0.000000 0.000000 0.000000 
-3107.441650 971.369080 1122.781982 -11.005675 -1.410883 -3.433652 -1.155510 12.291862 1.353316 -2.368184 -2.217828 -0.408350 -2.415780 2.047704 0.182059 -0.624292 -4.495068 2.944810 0.000000 0.000000 0.000000 -2.838171 -22.883111 3.425173 0.152815 -12.054825 2.679186 14.052958 -68.686442 20.947977 0.000000 0.000000 0.000000 -1.847354 -14.481713 3.958961 2.883125 -10.101290 1.799231 -10.535744 -72.338743 -10.662163 0.000000 0.000000 0.000000 -0.586790 1.415744 -3.525109 -1.715420 21.890679 0.473783 -2.608182 -0.690009 -1.125756 0.000000 0.000000 0.000000 5.629721 -14.114567 2.436603 6.027995 16.916238 2.504438 5.963265 -3.064735 2.638099 0.000000 0.000000 0.000000 
